<svg xmlns="http://www.w3.org/2000/svg" xmlns:xlink="http://www.w3.org/1999/xlink" id="processonSvg1000" viewBox="-141.44522530258484 -140.0 1656.4452253025847 1283.6107038847526" width="1656.4452253025847" height="1283.6107038847526"><defs id="ProcessOnDefs1001"><marker id="ProcessOnMarker1022" markerUnits="userSpaceOnUse" orient="auto" markerWidth="18.354101966249686" markerHeight="11.927218471003272" viewBox="-1.5 -2.0645728807067605 18.354101966249686 11.927218471003272" refX="-1.5" refY="3.8990363547948754"><path id="ProcessOnPath1023" d="M12.0 3.8990363547948754L0.0 7.798072709589751V0.0Z" stroke="#323232" stroke-width="3.0" fill="#323232" transform="matrix(1.0,0.0,0.0,1.0,0.0,0.0)"/></marker><marker id="ProcessOnMarker1220" markerUnits="userSpaceOnUse" orient="auto" markerWidth="18.354101966249686" markerHeight="11.927218471003272" viewBox="-1.5 -2.0645728807067605 18.354101966249686 11.927218471003272" refX="-1.5" refY="3.8990363547948754"><path id="ProcessOnPath1221" d="M12.0 3.8990363547948754L0.0 7.798072709589751V0.0Z" stroke="#323232" stroke-width="3.0" fill="#323232" transform="matrix(1.0,0.0,0.0,1.0,0.0,0.0)"/></marker><marker id="ProcessOnMarker1224" markerUnits="userSpaceOnUse" orient="auto" markerWidth="18.354101966249686" markerHeight="11.927218471003272" viewBox="-1.5 -2.0645728807067605 18.354101966249686 11.927218471003272" refX="-1.5" refY="3.8990363547948754"><path id="ProcessOnPath1225" d="M12.0 3.8990363547948754L0.0 7.798072709589751V0.0Z" stroke="#323232" stroke-width="3.0" fill="#323232" transform="matrix(1.0,0.0,0.0,1.0,0.0,0.0)"/></marker><marker id="ProcessOnMarker1228" markerUnits="userSpaceOnUse" orient="auto" markerWidth="18.354101966249686" markerHeight="11.927218471003272" viewBox="-1.5 -2.0645728807067605 18.354101966249686 11.927218471003272" refX="-1.5" refY="3.8990363547948754"><path id="ProcessOnPath1229" d="M12.0 3.8990363547948754L0.0 7.798072709589751V0.0Z" stroke="#323232" stroke-width="3.0" fill="#323232" transform="matrix(1.0,0.0,0.0,1.0,0.0,0.0)"/></marker><marker id="ProcessOnMarker1232" markerUnits="userSpaceOnUse" orient="auto" markerWidth="18.354101966249686" markerHeight="11.927218471003272" viewBox="-1.5 -2.0645728807067605 18.354101966249686 11.927218471003272" refX="-1.5" refY="3.8990363547948754"><path id="ProcessOnPath1233" d="M12.0 3.8990363547948754L0.0 7.798072709589751V0.0Z" stroke="#323232" stroke-width="3.0" fill="#323232" transform="matrix(1.0,0.0,0.0,1.0,0.0,0.0)"/></marker><marker id="ProcessOnMarker1236" markerUnits="userSpaceOnUse" orient="auto" markerWidth="18.354101966249686" markerHeight="11.927218471003272" viewBox="-1.5 -2.0645728807067605 18.354101966249686 11.927218471003272" refX="-1.5" refY="3.8990363547948754"><path id="ProcessOnPath1237" d="M12.0 3.8990363547948754L0.0 7.798072709589751V0.0Z" stroke="#323232" stroke-width="3.0" fill="#323232" transform="matrix(1.0,0.0,0.0,1.0,0.0,0.0)"/></marker><marker id="ProcessOnMarker1240" markerUnits="userSpaceOnUse" orient="auto" markerWidth="18.354101966249686" markerHeight="11.927218471003272" viewBox="-1.5 -2.0645728807067605 18.354101966249686 11.927218471003272" refX="-1.5" refY="3.8990363547948754"><path id="ProcessOnPath1241" d="M12.0 3.8990363547948754L0.0 7.798072709589751V0.0Z" stroke="#323232" stroke-width="3.0" fill="#323232" transform="matrix(1.0,0.0,0.0,1.0,0.0,0.0)"/></marker><marker id="ProcessOnMarker1244" markerUnits="userSpaceOnUse" orient="auto" markerWidth="18.354101966249686" markerHeight="11.927218471003272" viewBox="-1.5 -2.0645728807067605 18.354101966249686 11.927218471003272" refX="-1.5" refY="3.8990363547948754"><path id="ProcessOnPath1245" d="M12.0 3.8990363547948754L0.0 7.798072709589751V0.0Z" stroke="#323232" stroke-width="3.0" fill="#323232" transform="matrix(1.0,0.0,0.0,1.0,0.0,0.0)"/></marker><marker id="ProcessOnMarker1248" markerUnits="userSpaceOnUse" orient="auto" markerWidth="18.354101966249686" markerHeight="11.927218471003272" viewBox="-1.5 -2.0645728807067605 18.354101966249686 11.927218471003272" refX="-1.5" refY="3.8990363547948754"><path id="ProcessOnPath1249" d="M12.0 3.8990363547948754L0.0 7.798072709589751V0.0Z" stroke="#323232" stroke-width="3.0" fill="#323232" transform="matrix(1.0,0.0,0.0,1.0,0.0,0.0)"/></marker><marker id="ProcessOnMarker1252" markerUnits="userSpaceOnUse" orient="auto" markerWidth="18.354101966249686" markerHeight="11.927218471003272" viewBox="-1.5 -2.0645728807067605 18.354101966249686 11.927218471003272" refX="-1.5" refY="3.8990363547948754"><path id="ProcessOnPath1253" d="M12.0 3.8990363547948754L0.0 7.798072709589751V0.0Z" stroke="#323232" stroke-width="3.0" fill="#323232" transform="matrix(1.0,0.0,0.0,1.0,0.0,0.0)"/></marker><marker id="ProcessOnMarker1256" markerUnits="userSpaceOnUse" orient="auto" markerWidth="18.354101966249686" markerHeight="11.927218471003272" viewBox="-1.5 -2.0645728807067605 18.354101966249686 11.927218471003272" refX="-1.5" refY="3.8990363547948754"><path id="ProcessOnPath1257" d="M12.0 3.8990363547948754L0.0 7.798072709589751V0.0Z" stroke="#323232" stroke-width="3.0" fill="#323232" transform="matrix(1.0,0.0,0.0,1.0,0.0,0.0)"/></marker></defs><g id="ProcessOnG1002"><path id="ProcessOnPath1003" d="M-141.44522530258484 -140.0H1515.0V1143.6107038847526H-141.44522530258473V-140.0Z" fill="#cfcfcf"/><g id="ProcessOnG1004"><g id="ProcessOnG1005" transform="matrix(1.0,0.0,0.0,1.0,169.323124042879,667.8114471339388)" opacity="1.0"><path id="ProcessOnPath1006" d="M0.0 4.0Q0.0 0.0 4.0 0.0L119.88802227734384 0.0Q123.88802227734384 0.0 123.88802227734384 4.0L123.88802227734384 53.951671030451806Q123.88802227734384 57.951671030451806 119.88802227734384 57.951671030451806L4.0 57.951671030451806Q0.0 57.951671030451806 0.0 53.951671030451806Z" stroke="#888888" stroke-width="3.0" stroke-dasharray="15.0 6.0" fill="#6ed464"/><g id="ProcessOnG1007" transform="matrix(1.0,0.0,0.0,1.0,10.0,15.225835515225903)"><text id="ProcessOnText1008" fill="#323232" font-size="22" x="50.94401113867192" y="22.55" font-family="微软雅黑" font-weight="normal" font-style="normal" text-decoration="none" family="微软雅黑" text-anchor="middle" size="22">Nginx</text></g></g><g id="ProcessOnG1009" transform="matrix(1.0,0.0,0.0,1.0,665.7625940173094,667.8114471339388)" opacity="1.0"><path id="ProcessOnPath1010" d="M0.0 4.0Q0.0 0.0 4.0 0.0L114.51918239922966 0.0Q118.51918239922966 0.0 118.51918239922966 4.0L118.51918239922966 60.05857312061033Q118.51918239922966 64.05857312061033 114.51918239922966 64.05857312061033L4.0 64.05857312061033Q0.0 64.05857312061033 0.0 60.05857312061033Z" stroke="#888888" stroke-width="3.0" stroke-dasharray="15.0 6.0" fill="#6ed464"/><g id="ProcessOnG1011" transform="matrix(1.0,0.0,0.0,1.0,10.0,18.279286560305167)"><text id="ProcessOnText1012" fill="#323232" font-size="22" x="48.25959119961483" y="22.55" font-family="微软雅黑" font-weight="normal" font-style="normal" text-decoration="none" family="微软雅黑" text-anchor="middle" size="22">PHP</text></g></g><g id="ProcessOnG1013" transform="matrix(1.0,0.0,0.0,1.0,1131.0137825421132,670.8648981790183)" opacity="1.0"><path id="ProcessOnPath1014" d="M0.0 4.0Q0.0 0.0 4.0 0.0L110.48698315467075 0.0Q114.48698315467075 0.0 114.48698315467075 4.0L114.48698315467075 53.951671030451806Q114.48698315467075 57.951671030451806 110.48698315467075 57.951671030451806L4.0 57.951671030451806Q0.0 57.951671030451806 0.0 53.951671030451806Z" stroke="#888888" stroke-width="3.0" stroke-dasharray="15.0 6.0" fill="#6ed464"/><g id="ProcessOnG1015" transform="matrix(1.0,0.0,0.0,1.0,10.0,15.225835515225903)"><text id="ProcessOnText1016" fill="#323232" font-size="22" x="46.24349157733538" y="22.55" font-family="微软雅黑" font-weight="normal" font-style="normal" text-decoration="none" family="微软雅黑" text-anchor="middle" size="22">Mysql</text></g></g><g id="ProcessOnG1017" transform="matrix(1.0,0.0,0.0,1.0,-99.66666666666666,33.666666666666686)" opacity="1.0"><g id="ProcessOnG1019" transform="matrix(1.475378980797611,0.0,0.0,1.0867079368674968,0.0,0.0)"> <g id="g12" transform="scale(0.1,0.1)"> <path id="path22" fill="#02709F" d="M261.113,104.458c0,49.36-40.244,89.453-90.078,89.453c-49.697,0-90.059-40.093-90.059-89.453 C80.977,55.112,121.338,15,171.035,15C220.869,15,261.113,55.112,261.113,104.458"/> <path id="path24" fill="none" stroke="#FFFFFF" stroke-width="3.9999" d="M261.113,104.458c0,49.36-40.244,89.453-90.078,89.453 c-49.697,0-90.059-40.093-90.059-89.453C80.977,55.112,121.338,15,171.035,15C220.869,15,261.113,55.112,261.113,104.458z"/> <path id="path26" fill="#02709F" d="M310.635,785H685V389.56H310.635V785z"/> <path id="path28" fill="none" stroke="#FFFFFF" stroke-width="3.9999" d="M310.635,785H685V389.56H310.635V785z"/> <path id="path30" fill="#02709F" d="M441.699,388.437h217.979V339.16H441.699V388.437z"/> <path id="path32" fill="none" stroke="#FFFFFF" stroke-width="3.9999" d="M441.699,388.437h217.979V339.16H441.699V388.437z"/> <path id="path34" fill="#02709F" d="M615.342,213.418V339.16H445.693V170.732l149.834,19.409 C595.527,190.142,615.879,192.095,615.342,213.418"/> <path id="path36" fill="none" stroke="#FFFFFF" stroke-width="3.9999" d="M615.342,213.418V339.16H445.693V170.732l149.834,19.409 C595.527,190.142,615.879,192.095,615.342,213.418z"/> <path id="path38" fill="#02709F" d="M288.34,733.886H184.912V612.295h-51.875v121.592H31.211c-8.975,0-16.211,7.266-16.211,15.967 v18.779c0,8.936,7.236,16.26,16.211,16.26H288.34c8.984,0,16.211-7.324,16.211-16.26v-18.779 C304.551,741.152,297.324,733.886,288.34,733.886"/> <path id="path40" fill="none" stroke="#FFFFFF" stroke-width="3.9999" d="M288.34,733.886H184.912V612.295h-51.875v121.592H31.211 c-8.975,0-16.211,7.266-16.211,15.967v18.779c0,8.936,7.236,16.26,16.211,16.26H288.34c8.984,0,16.211-7.324,16.211-16.26v-18.779 C304.551,741.152,297.324,733.886,288.34,733.886z"/> <path id="path42" fill="#02709F" d="M292.871,555.654H79.668V254.863c0-9.785-7.959-17.695-17.813-17.695H40.996 c-9.844,0-17.803,7.91-17.803,17.695v339.209c0,9.756,7.959,17.832,17.803,17.832h251.875c9.844,0,17.822-8.076,17.822-17.832 v-20.869C310.693,563.681,302.715,555.654,292.871,555.654"/> <path id="path44" fill="none" stroke="#FFFFFF" stroke-width="3.9999" d="M292.871,555.654H79.668V254.863 c0-9.785-7.959-17.695-17.813-17.695H40.996c-9.844,0-17.803,7.91-17.803,17.695v339.209c0,9.756,7.959,17.832,17.803,17.832 h251.875c9.844,0,17.822-8.076,17.822-17.832v-20.869C310.693,563.681,302.715,555.654,292.871,555.654z"/> <path id="path46" fill="#02709F" d="M242.822,213.13l163.496,117.778c7.188,5.986,11.367,14.893,11.367,24.727 c0,18.037-14.59,32.646-32.744,32.646c-5.449,0-12.852-1.846-18.73-5.137L229.346,299.18v152.636l77.275,0.234v98.34L87.93,549.873 V225.908c0,0,1.348-25.64,43.77-25.64h78.896C210.596,200.269,225.498,201.021,242.822,213.13"/> <path id="path48" fill="none" stroke="#FFFFFF" stroke-width="3.9999" d="M242.822,213.13l163.496,117.778 c7.188,5.986,11.367,14.893,11.367,24.727c0,18.037-14.59,32.646-32.744,32.646c-5.449,0-12.852-1.846-18.73-5.137L229.346,299.18 v152.636l77.275,0.234v98.34L87.93,549.873V225.908c0,0,1.348-25.64,43.77-25.64h78.896 C210.596,200.269,225.498,201.021,242.822,213.13z"/> </g>  </g></g><g id="ProcessOnG1020"><path id="ProcessOnPath1021" d="M3.6098619891660673 77.13498414136657C85.0 44.0 159.0 123.0 140.32973501300714 179.0107949609786" stroke="#323232" stroke-width="3.0" stroke-dasharray="none" fill="none" marker-end="url(#ProcessOnMarker1022)"/></g><g id="ProcessOnG1024" transform="matrix(1.0,0.0,0.0,1.0,369.75359338632654,231.52582635790418)" opacity="1.0"><path id="ProcessOnPath1025" d="M11.916522537211472 0.0L11.916522537211472 892.0848775268485" stroke="#888888" stroke-width="3.0" stroke-dasharray="15.0 6.0" fill="none"/><path id="ProcessOnPath1026" d="M0.0 0.0L23.833045074422945 0.0L23.833045074422945 892.0848775268485L0.0 892.0848775268485Z" stroke="none" stroke-width="0.0" stroke-dasharray="0.0 0.0" fill="none"/></g><g id="ProcessOnG1027" transform="matrix(1.0,0.0,0.0,1.0,856.2524435374669,223.0)" opacity="1.0"><path id="ProcessOnPath1028" d="M11.916522537211472 0.0L11.916522537211472 900.6107038847526" stroke="#888888" stroke-width="3.0" stroke-dasharray="15.0 6.0" fill="none"/><path id="ProcessOnPath1029" d="M0.0 0.0L23.833045074422945 0.0L23.833045074422945 900.6107038847526L0.0 900.6107038847526Z" stroke="none" stroke-width="0.0" stroke-dasharray="0.0 0.0" fill="none"/></g><g id="ProcessOnG1030" transform="matrix(1.0,0.0,0.0,1.0,15.276528655832763,502.9286801287327)" opacity="1.0"><path id="ProcessOnPath1031" d="M0.0 10.0L1289.7234713441671 10.0" stroke="#3333ff" stroke-width="3.0" stroke-dasharray="15.0 6.0" fill="none"/><path id="ProcessOnPath1032" d="M0.0 0.0L1289.7234713441671 0.0L1289.7234713441671 20.0L0.0 20.0Z" stroke="none" stroke-width="0.0" stroke-dasharray="0.0 0.0" fill="none"/></g><g id="ProcessOnG1033" transform="matrix(1.0,0.0,0.0,1.0,-49.83767228177642,667.8114471339388)" opacity="1.0"><path id="ProcessOnPath1034" d="M0.0 4.0Q0.0 0.0 4.0 0.0L119.88802227734384 0.0Q123.88802227734384 0.0 123.88802227734384 4.0L123.88802227734384 53.951671030451806Q123.88802227734384 57.951671030451806 119.88802227734384 57.951671030451806L4.0 57.951671030451806Q0.0 57.951671030451806 0.0 53.951671030451806Z" stroke="#888888" stroke-width="3.0" stroke-dasharray="15.0 6.0" fill="#ffff00"/><g id="ProcessOnG1035" transform="matrix(1.0,0.0,0.0,1.0,10.0,1.4758355152259028)"><text id="ProcessOnText1036" fill="#323232" font-size="22" x="50.94401113867192" y="22.55" font-family="微软雅黑" font-weight="normal" font-style="normal" text-decoration="none" family="微软雅黑" text-anchor="middle" size="22">ingress-s</text><text id="ProcessOnText1037" fill="#323232" font-size="22" x="50.94401113867192" y="50.05" font-family="微软雅黑" font-weight="normal" font-style="normal" text-decoration="none" family="微软雅黑" text-anchor="middle" size="22">box</text></g></g><g id="ProcessOnG1038" transform="matrix(1.0,0.0,0.0,1.0,465.8989280245023,670.8648981790183)" opacity="1.0"><path id="ProcessOnPath1039" d="M0.0 4.0Q0.0 0.0 4.0 0.0L119.88802227734384 0.0Q123.88802227734384 0.0 123.88802227734384 4.0L123.88802227734384 53.951671030451806Q123.88802227734384 57.951671030451806 119.88802227734384 57.951671030451806L4.0 57.951671030451806Q0.0 57.951671030451806 0.0 53.951671030451806Z" stroke="#888888" stroke-width="3.0" stroke-dasharray="15.0 6.0" fill="#ffff00"/><g id="ProcessOnG1040" transform="matrix(1.0,0.0,0.0,1.0,10.0,1.4758355152259028)"><text id="ProcessOnText1041" fill="#323232" font-size="22" x="50.94401113867192" y="22.55" font-family="微软雅黑" font-weight="normal" font-style="normal" text-decoration="none" family="微软雅黑" text-anchor="middle" size="22">ingress-s</text><text id="ProcessOnText1042" fill="#323232" font-size="22" x="50.94401113867192" y="50.05" font-family="微软雅黑" font-weight="normal" font-style="normal" text-decoration="none" family="微软雅黑" text-anchor="middle" size="22">box</text></g></g><g id="ProcessOnG1043" transform="matrix(1.0,0.0,0.0,1.0,946.7442572741195,673.9183492240975)" opacity="1.0"><path id="ProcessOnPath1044" d="M0.0 4.0Q0.0 0.0 4.0 0.0L119.88802227734384 0.0Q123.88802227734384 0.0 123.88802227734384 4.0L123.88802227734384 53.951671030451806Q123.88802227734384 57.951671030451806 119.88802227734384 57.951671030451806L4.0 57.951671030451806Q0.0 57.951671030451806 0.0 53.951671030451806Z" stroke="#888888" stroke-width="3.0" stroke-dasharray="15.0 6.0" fill="#ffff00"/><g id="ProcessOnG1045" transform="matrix(1.0,0.0,0.0,1.0,10.0,1.4758355152259028)"><text id="ProcessOnText1046" fill="#323232" font-size="22" x="50.94401113867192" y="22.55" font-family="微软雅黑" font-weight="normal" font-style="normal" text-decoration="none" family="微软雅黑" text-anchor="middle" size="22">ingress-s</text><text id="ProcessOnText1047" fill="#323232" font-size="22" x="50.94401113867192" y="50.05" font-family="微软雅黑" font-weight="normal" font-style="normal" text-decoration="none" family="微软雅黑" text-anchor="middle" size="22">box</text></g></g><g id="ProcessOnG1048" transform="matrix(1.0,0.0,0.0,1.0,542.5,513.0)" opacity="1.0"><path id="ProcessOnPath1049" d="M10.5 0.0L10.5 157.86489817901838" stroke="#3333ff" stroke-width="3.0" stroke-dasharray="15.0 6.0" fill="none"/><path id="ProcessOnPath1050" d="M0.0 0.0L21.0 0.0L21.0 157.86489817901838L0.0 157.86489817901838Z" stroke="none" stroke-width="0.0" stroke-dasharray="0.0 0.0" fill="none"/></g><g id="ProcessOnG1051" transform="matrix(1.0,0.0,0.0,1.0,1022.5,513.0)" opacity="1.0"><path id="ProcessOnPath1052" d="M10.5 0.0L10.5 157.86489817901827" stroke="#3333ff" stroke-width="3.0" stroke-dasharray="15.0 6.0" fill="none"/><path id="ProcessOnPath1053" d="M0.0 0.0L21.0 0.0L21.0 157.86489817901827L0.0 157.86489817901827Z" stroke="none" stroke-width="0.0" stroke-dasharray="0.0 0.0" fill="none"/></g><g id="ProcessOnG1054" transform="matrix(1.0,0.0,0.0,1.0,20.5,509.94654895492044)" opacity="1.0"><path id="ProcessOnPath1055" d="M10.5 0.0L10.5 157.86489817901838" stroke="#3333ff" stroke-width="3.0" stroke-dasharray="15.0 6.0" fill="none"/><path id="ProcessOnPath1056" d="M0.0 0.0L21.0 0.0L21.0 157.86489817901838L0.0 157.86489817901838Z" stroke="none" stroke-width="0.0" stroke-dasharray="0.0 0.0" fill="none"/></g><g id="ProcessOnG1057" transform="matrix(1.0,0.0,0.0,1.0,-119.72347134416725,397.9286801287327)" opacity="1.0"><path id="ProcessOnPath1058" d="M0.0 10.0L447.72347134416725 10.0" stroke="#cc0000" stroke-width="3.0" stroke-dasharray="15.0 6.0" fill="none"/><path id="ProcessOnPath1059" d="M0.0 0.0L447.72347134416725 0.0L447.72347134416725 20.0L0.0 20.0Z" stroke="none" stroke-width="0.0" stroke-dasharray="0.0 0.0" fill="none"/></g><g id="ProcessOnG1060" transform="matrix(1.0,0.0,0.0,1.0,-39.5,408.0)" opacity="1.0"><path id="ProcessOnPath1061" d="M10.5 0.0L10.5 259.8114471339388" stroke="#cc0000" stroke-width="3.0" stroke-dasharray="15.0 6.0" fill="none"/><path id="ProcessOnPath1062" d="M0.0 0.0L21.0 0.0L21.0 259.8114471339388L0.0 259.8114471339388Z" stroke="none" stroke-width="0.0" stroke-dasharray="0.0 0.0" fill="none"/></g><g id="ProcessOnG1063" transform="matrix(1.0,0.0,0.0,1.0,190.5,408.0)" opacity="1.0"><path id="ProcessOnPath1064" d="M10.5 0.0L10.5 259.8114471339388" stroke="#cc0000" stroke-width="3.0" stroke-dasharray="15.0 6.0" fill="none"/><path id="ProcessOnPath1065" d="M0.0 0.0L21.0 0.0L21.0 259.8114471339388L0.0 259.8114471339388Z" stroke="none" stroke-width="0.0" stroke-dasharray="0.0 0.0" fill="none"/></g><g id="ProcessOnG1066" transform="matrix(1.0,0.0,0.0,1.0,239.5,509.94654895492044)" opacity="1.0"><path id="ProcessOnPath1067" d="M10.5 0.0L10.5 157.86489817901838" stroke="#3333ff" stroke-width="3.0" stroke-dasharray="15.0 6.0" fill="none"/><path id="ProcessOnPath1068" d="M0.0 0.0L21.0 0.0L21.0 157.86489817901838L0.0 157.86489817901838Z" stroke="none" stroke-width="0.0" stroke-dasharray="0.0 0.0" fill="none"/></g><g id="ProcessOnG1069" transform="matrix(1.0,0.0,0.0,1.0,399.27652865583275,397.9286801287327)" opacity="1.0"><path id="ProcessOnPath1070" d="M0.0 10.0L447.72347134416725 10.0" stroke="#cc0000" stroke-width="3.0" stroke-dasharray="15.0 6.0" fill="none"/><path id="ProcessOnPath1071" d="M0.0 0.0L447.72347134416725 0.0L447.72347134416725 20.0L0.0 20.0Z" stroke="none" stroke-width="0.0" stroke-dasharray="0.0 0.0" fill="none"/></g><g id="ProcessOnG1072" transform="matrix(1.0,0.0,0.0,1.0,490.5,408.0)" opacity="1.0"><path id="ProcessOnPath1073" d="M10.5 0.0L10.5 259.8114471339388" stroke="#cc0000" stroke-width="3.0" stroke-dasharray="15.0 6.0" fill="none"/><path id="ProcessOnPath1074" d="M0.0 0.0L21.0 0.0L21.0 259.8114471339388L0.0 259.8114471339388Z" stroke="none" stroke-width="0.0" stroke-dasharray="0.0 0.0" fill="none"/></g><g id="ProcessOnG1075" transform="matrix(1.0,0.0,0.0,1.0,710.5,408.0)" opacity="1.0"><path id="ProcessOnPath1076" d="M10.5 0.0L10.5 259.8114471339388" stroke="#cc0000" stroke-width="3.0" stroke-dasharray="15.0 6.0" fill="none"/><path id="ProcessOnPath1077" d="M0.0 0.0L21.0 0.0L21.0 259.8114471339388L0.0 259.8114471339388Z" stroke="none" stroke-width="0.0" stroke-dasharray="0.0 0.0" fill="none"/></g><g id="ProcessOnG1078" transform="matrix(1.0,0.0,0.0,1.0,889.2765286558327,397.9286801287327)" opacity="1.0"><path id="ProcessOnPath1079" d="M0.0 10.0L415.72347134416725 10.0" stroke="#cc0000" stroke-width="3.0" stroke-dasharray="15.0 6.0" fill="none"/><path id="ProcessOnPath1080" d="M0.0 0.0L415.72347134416725 0.0L415.72347134416725 20.0L0.0 20.0Z" stroke="none" stroke-width="0.0" stroke-dasharray="0.0 0.0" fill="none"/></g><g id="ProcessOnG1081" transform="matrix(1.0,0.0,0.0,1.0,970.5,411.0)" opacity="1.0"><path id="ProcessOnPath1082" d="M10.5 0.0L10.5 266.8114471339388" stroke="#cc0000" stroke-width="3.0" stroke-dasharray="15.0 6.0" fill="none"/><path id="ProcessOnPath1083" d="M0.0 0.0L21.0 0.0L21.0 266.8114471339388L0.0 266.8114471339388Z" stroke="none" stroke-width="0.0" stroke-dasharray="0.0 0.0" fill="none"/></g><g id="ProcessOnG1084" transform="matrix(1.0,0.0,0.0,1.0,1181.5,404.5)" opacity="1.0"><path id="ProcessOnPath1085" d="M10.5 0.0L10.5 266.8114471339388" stroke="#cc0000" stroke-width="3.0" stroke-dasharray="15.0 6.0" fill="none"/><path id="ProcessOnPath1086" d="M0.0 0.0L21.0 0.0L21.0 266.8114471339388L0.0 266.8114471339388Z" stroke="none" stroke-width="0.0" stroke-dasharray="0.0 0.0" fill="none"/></g><g id="ProcessOnG1087" transform="matrix(1.0,0.0,0.0,1.0,200.0,872.5)" opacity="1.0"><path id="ProcessOnPath1088" d="M0.0 10.5L1112.0 10.5" stroke="#cc00cc" stroke-width="3.0" stroke-dasharray="15.0 6.0" fill="none"/><path id="ProcessOnPath1089" d="M0.0 0.0L1112.0 0.0L1112.0 21.0L0.0 21.0Z" stroke="none" stroke-width="0.0" stroke-dasharray="0.0 0.0" fill="none"/></g><g id="ProcessOnG1090" transform="matrix(1.0,0.0,0.0,1.0,220.7671351815509,723.0)" opacity="1.0"><path id="ProcessOnPath1091" d="M10.5 0.0L10.5 159.0" stroke="#cc00cc" stroke-width="3.0" stroke-dasharray="15.0 6.0" fill="none"/><path id="ProcessOnPath1092" d="M0.0 0.0L21.0 0.0L21.0 159.0L0.0 159.0Z" stroke="none" stroke-width="0.0" stroke-dasharray="0.0 0.0" fill="none"/></g><g id="ProcessOnG1093" transform="matrix(1.0,0.0,0.0,1.0,720.7671351815509,731.8700202545493)" opacity="1.0"><path id="ProcessOnPath1094" d="M10.5 0.0L10.5 150.12997974545067" stroke="#cc00cc" stroke-width="3.0" stroke-dasharray="15.0 6.0" fill="none"/><path id="ProcessOnPath1095" d="M0.0 0.0L21.0 0.0L21.0 150.12997974545067L0.0 150.12997974545067Z" stroke="none" stroke-width="0.0" stroke-dasharray="0.0 0.0" fill="none"/></g><g id="ProcessOnG1096" transform="matrix(1.0,0.0,0.0,1.0,1186.7671351815509,731.8700202545492)" opacity="1.0"><path id="ProcessOnPath1097" d="M10.5 0.0L10.5 150.12997974545067" stroke="#cc00cc" stroke-width="3.0" stroke-dasharray="15.0 6.0" fill="none"/><path id="ProcessOnPath1098" d="M0.0 0.0L21.0 0.0L21.0 150.12997974545067L0.0 150.12997974545067Z" stroke="none" stroke-width="0.0" stroke-dasharray="0.0 0.0" fill="none"/></g><g id="ProcessOnG1099" transform="matrix(1.0,0.0,0.0,1.0,1309.0,862.5)" opacity="1.0"><path id="ProcessOnPath1100" d="M0.0 0.0L92.0 0.0L92.0 37.0L0.0 37.0Z" stroke="none" stroke-width="0.0" stroke-dasharray="0.0 0.0" fill="none"/><g id="ProcessOnG1101" transform="matrix(1.0,0.0,0.0,1.0,0.0,5.375)"><text id="ProcessOnText1102" fill="#323232" font-size="21" x="45.0" y="21.525" font-family="微软雅黑" font-weight="normal" font-style="normal" text-decoration="none" family="微软雅黑" text-anchor="middle" size="21">net1</text></g></g><g id="ProcessOnG1103" transform="matrix(1.0,0.0,0.0,1.0,1312.0,491.5)" opacity="1.0"><path id="ProcessOnPath1104" d="M0.0 0.0L92.0 0.0L92.0 37.0L0.0 37.0Z" stroke="none" stroke-width="0.0" stroke-dasharray="0.0 0.0" fill="none"/><g id="ProcessOnG1105" transform="matrix(1.0,0.0,0.0,1.0,0.0,5.375)"><text id="ProcessOnText1106" fill="#323232" font-size="21" x="45.0" y="21.525" font-family="微软雅黑" font-weight="normal" font-style="normal" text-decoration="none" family="微软雅黑" text-anchor="middle" size="21">ingress</text></g></g><g id="ProcessOnG1107" transform="matrix(1.0,0.0,0.0,1.0,1321.0,389.4286801287327)" opacity="1.0"><path id="ProcessOnPath1108" d="M0.0 0.0L174.0 0.0L174.0 37.0L0.0 37.0Z" stroke="none" stroke-width="0.0" stroke-dasharray="0.0 0.0" fill="none"/><g id="ProcessOnG1109" transform="matrix(1.0,0.0,0.0,1.0,0.0,5.375)"><text id="ProcessOnText1110" fill="#323232" font-size="21" x="86.0" y="21.525" font-family="微软雅黑" font-weight="normal" font-style="normal" text-decoration="none" family="微软雅黑" text-anchor="middle" size="21">docker_gwbridge</text></g></g><g id="ProcessOnG1111" transform="matrix(1.0,0.0,0.0,1.0,160.2671351815509,890.5)" opacity="1.0"><path id="ProcessOnPath1112" d="M0.0 0.0L142.0 0.0L142.0 52.5L0.0 52.5Z" stroke="none" stroke-width="0.0" stroke-dasharray="0.0 0.0" fill="none"/><g id="ProcessOnG1113" transform="matrix(1.0,0.0,0.0,1.0,0.0,0.0)"><text id="ProcessOnText1114" fill="#323232" font-size="21" x="70.0" y="21.525" font-family="微软雅黑" font-weight="normal" font-style="normal" text-decoration="none" family="微软雅黑" text-anchor="middle" size="21">100.0.0.7</text><text id="ProcessOnText1115" fill="#323232" font-size="21" x="70.0" y="47.775" font-family="微软雅黑" font-weight="normal" font-style="normal" text-decoration="none" family="微软雅黑" text-anchor="middle" size="21">V:100.0.0.6</text></g></g><g id="ProcessOnG1116" transform="matrix(1.0,0.0,0.0,1.0,133.0,340.0713198712673)" opacity="1.0"><path id="ProcessOnPath1117" d="M0.0 0.0L151.0 0.0L151.0 64.42868012873271L0.0 64.42868012873271Z" stroke="none" stroke-width="0.0" stroke-dasharray="0.0 0.0" fill="none"/><g id="ProcessOnG1118" transform="matrix(1.0,0.0,0.0,1.0,0.0,19.089340064366354)"><text id="ProcessOnText1119" fill="#323232" font-size="21" x="74.5" y="21.525" font-family="微软雅黑" font-weight="normal" font-style="normal" text-decoration="none" family="微软雅黑" text-anchor="middle" size="21">172.18.0.3</text></g></g><g id="ProcessOnG1120" transform="matrix(1.0,0.0,0.0,1.0,675.2671351815509,893.5)" opacity="1.0"><path id="ProcessOnPath1121" d="M0.0 0.0L117.0 0.0L117.0 60.5L0.0 60.5Z" stroke="none" stroke-width="0.0" stroke-dasharray="0.0 0.0" fill="none"/><g id="ProcessOnG1122" transform="matrix(1.0,0.0,0.0,1.0,0.0,4.0)"><text id="ProcessOnText1123" fill="#323232" font-size="21" x="57.5" y="21.525" font-family="微软雅黑" font-weight="normal" font-style="normal" text-decoration="none" family="微软雅黑" text-anchor="middle" size="21">100.0.0.5</text><text id="ProcessOnText1124" fill="#323232" font-size="21" x="57.5" y="47.775" font-family="微软雅黑" font-weight="normal" font-style="normal" text-decoration="none" family="微软雅黑" text-anchor="middle" size="21">V:100.0.0.4</text></g></g><g id="ProcessOnG1125" transform="matrix(1.0,0.0,0.0,1.0,1138.500765696784,879.5)" opacity="1.0"><path id="ProcessOnPath1126" d="M0.0 0.0L122.0 0.0L122.0 74.5L0.0 74.5Z" stroke="none" stroke-width="0.0" stroke-dasharray="0.0 0.0" fill="none"/><g id="ProcessOnG1127" transform="matrix(1.0,0.0,0.0,1.0,0.0,11.0)"><text id="ProcessOnText1128" fill="#323232" font-size="21" x="60.0" y="21.525" font-family="微软雅黑" font-weight="normal" font-style="normal" text-decoration="none" family="微软雅黑" text-anchor="middle" size="21">100.0.0.3</text><text id="ProcessOnText1129" fill="#323232" font-size="21" x="60.0" y="47.775" font-family="微软雅黑" font-weight="normal" font-style="normal" text-decoration="none" family="微软雅黑" text-anchor="middle" size="21">V:100.0.0.2</text></g></g><g id="ProcessOnG1130" transform="matrix(1.0,0.0,0.0,1.0,665.0,357.0)" opacity="1.0"><path id="ProcessOnPath1131" d="M0.0 0.0L122.0 0.0L122.0 43.5L0.0 43.5Z" stroke="none" stroke-width="0.0" stroke-dasharray="0.0 0.0" fill="none"/><g id="ProcessOnG1132" transform="matrix(1.0,0.0,0.0,1.0,0.0,8.625)"><text id="ProcessOnText1133" fill="#323232" font-size="21" x="60.0" y="21.525" font-family="微软雅黑" font-weight="normal" font-style="normal" text-decoration="none" family="微软雅黑" text-anchor="middle" size="21">172.18.0.3 </text></g></g><g id="ProcessOnG1134" transform="matrix(1.0,0.0,0.0,1.0,1134.0,357.0)" opacity="1.0"><path id="ProcessOnPath1135" d="M0.0 0.0L122.0 0.0L122.0 43.5L0.0 43.5Z" stroke="none" stroke-width="0.0" stroke-dasharray="0.0 0.0" fill="none"/><g id="ProcessOnG1136" transform="matrix(1.0,0.0,0.0,1.0,0.0,8.625)"><text id="ProcessOnText1137" fill="#323232" font-size="21" x="60.0" y="21.525" font-family="微软雅黑" font-weight="normal" font-style="normal" text-decoration="none" family="微软雅黑" text-anchor="middle" size="21">172.18.0.3 </text></g></g><g id="ProcessOnG1138" transform="matrix(1.0,0.0,0.0,1.0,119.76713518155091,627.8114471339388)" opacity="1.0"><path id="ProcessOnPath1139" d="M0.0 0.0L122.0 0.0L122.0 43.5L0.0 43.5Z" stroke="none" stroke-width="0.0" stroke-dasharray="0.0 0.0" fill="none"/><g id="ProcessOnG1140" transform="matrix(1.0,0.0,0.0,1.0,0.0,8.625)"><text id="ProcessOnText1141" fill="#323232" font-size="21" x="60.0" y="21.525" font-family="微软雅黑" font-weight="normal" font-style="normal" text-decoration="none" family="微软雅黑" text-anchor="middle" size="21">eth1</text></g></g><g id="ProcessOnG1142" transform="matrix(1.0,0.0,0.0,1.0,194.0,717.0)" opacity="1.0"><path id="ProcessOnPath1143" d="M0.0 0.0L122.0 0.0L122.0 43.5L0.0 43.5Z" stroke="none" stroke-width="0.0" stroke-dasharray="0.0 0.0" fill="none"/><g id="ProcessOnG1144" transform="matrix(1.0,0.0,0.0,1.0,0.0,8.625)"><text id="ProcessOnText1145" fill="#323232" font-size="21" x="60.0" y="21.525" font-family="微软雅黑" font-weight="normal" font-style="normal" text-decoration="none" family="微软雅黑" text-anchor="middle" size="21">eth2</text></g></g><g id="ProcessOnG1146" transform="matrix(1.0,0.0,0.0,1.0,682.7671351815509,630.4183492240975)" opacity="1.0"><path id="ProcessOnPath1147" d="M0.0 0.0L122.0 0.0L122.0 43.5L0.0 43.5Z" stroke="none" stroke-width="0.0" stroke-dasharray="0.0 0.0" fill="none"/><g id="ProcessOnG1148" transform="matrix(1.0,0.0,0.0,1.0,0.0,8.625)"><text id="ProcessOnText1149" fill="#323232" font-size="21" x="60.0" y="21.525" font-family="微软雅黑" font-weight="normal" font-style="normal" text-decoration="none" family="微软雅黑" text-anchor="middle" size="21">eth1</text></g></g><g id="ProcessOnG1150" transform="matrix(1.0,0.0,0.0,1.0,1153.500765696784,637.3114471339388)" opacity="1.0"><path id="ProcessOnPath1151" d="M0.0 0.0L122.0 0.0L122.0 43.5L0.0 43.5Z" stroke="none" stroke-width="0.0" stroke-dasharray="0.0 0.0" fill="none"/><g id="ProcessOnG1152" transform="matrix(1.0,0.0,0.0,1.0,0.0,8.625)"><text id="ProcessOnText1153" fill="#323232" font-size="21" x="60.0" y="21.525" font-family="微软雅黑" font-weight="normal" font-style="normal" text-decoration="none" family="微软雅黑" text-anchor="middle" size="21">eth1</text></g></g><g id="ProcessOnG1154" transform="matrix(1.0,0.0,0.0,1.0,695.0,717.0)" opacity="1.0"><path id="ProcessOnPath1155" d="M0.0 0.0L122.0 0.0L122.0 43.5L0.0 43.5Z" stroke="none" stroke-width="0.0" stroke-dasharray="0.0 0.0" fill="none"/><g id="ProcessOnG1156" transform="matrix(1.0,0.0,0.0,1.0,0.0,8.625)"><text id="ProcessOnText1157" fill="#323232" font-size="21" x="60.0" y="21.525" font-family="微软雅黑" font-weight="normal" font-style="normal" text-decoration="none" family="微软雅黑" text-anchor="middle" size="21">eth0</text></g></g><g id="ProcessOnG1158" transform="matrix(1.0,0.0,0.0,1.0,1157.0,723.0)" opacity="1.0"><path id="ProcessOnPath1159" d="M0.0 0.0L122.0 0.0L122.0 43.5L0.0 43.5Z" stroke="none" stroke-width="0.0" stroke-dasharray="0.0 0.0" fill="none"/><g id="ProcessOnG1160" transform="matrix(1.0,0.0,0.0,1.0,0.0,8.625)"><text id="ProcessOnText1161" fill="#323232" font-size="21" x="60.0" y="21.525" font-family="微软雅黑" font-weight="normal" font-style="normal" text-decoration="none" family="微软雅黑" text-anchor="middle" size="21">eth0</text></g></g><g id="ProcessOnG1162" transform="matrix(1.0,0.0,0.0,1.0,190.5,459.0)" opacity="1.0"><path id="ProcessOnPath1163" d="M0.0 0.0L144.23286481844912 0.0L144.23286481844912 54.0L0.0 54.0Z" stroke="none" stroke-width="0.0" stroke-dasharray="0.0 0.0" fill="none"/><g id="ProcessOnG1164" transform="matrix(1.0,0.0,0.0,1.0,0.0,0.75)"><text id="ProcessOnText1165" fill="#323232" font-size="21" x="71.11643240922456" y="21.525" font-family="微软雅黑" font-weight="normal" font-style="normal" text-decoration="none" family="微软雅黑" text-anchor="middle" size="21">10.255.0.6</text><text id="ProcessOnText1166" fill="#323232" font-size="21" x="71.11643240922456" y="47.775" font-family="微软雅黑" font-weight="normal" font-style="normal" text-decoration="none" family="微软雅黑" text-anchor="middle" size="21">V:10.255.0.5</text></g></g><g id="ProcessOnG1167" transform="matrix(1.0,0.0,0.0,1.0,-30.0,469.5)" opacity="1.0"><path id="ProcessOnPath1168" d="M0.0 0.0L122.0 0.0L122.0 43.5L0.0 43.5Z" stroke="none" stroke-width="0.0" stroke-dasharray="0.0 0.0" fill="none"/><g id="ProcessOnG1169" transform="matrix(1.0,0.0,0.0,1.0,0.0,8.625)"><text id="ProcessOnText1170" fill="#323232" font-size="21" x="60.0" y="21.525" font-family="微软雅黑" font-weight="normal" font-style="normal" text-decoration="none" family="微软雅黑" text-anchor="middle" size="21">10.255.0.2</text></g></g><g id="ProcessOnG1171" transform="matrix(1.0,0.0,0.0,1.0,-90.0,361.0)" opacity="1.0"><path id="ProcessOnPath1172" d="M0.0 0.0L122.0 0.0L122.0 43.5L0.0 43.5Z" stroke="none" stroke-width="0.0" stroke-dasharray="0.0 0.0" fill="none"/><g id="ProcessOnG1173" transform="matrix(1.0,0.0,0.0,1.0,0.0,8.625)"><text id="ProcessOnText1174" fill="#323232" font-size="21" x="60.0" y="21.525" font-family="微软雅黑" font-weight="normal" font-style="normal" text-decoration="none" family="微软雅黑" text-anchor="middle" size="21">172.18.0.2</text></g></g><g id="ProcessOnG1175" transform="matrix(1.0,0.0,0.0,1.0,498.5,464.25)" opacity="1.0"><path id="ProcessOnPath1176" d="M0.0 0.0L122.0 0.0L122.0 43.5L0.0 43.5Z" stroke="none" stroke-width="0.0" stroke-dasharray="0.0 0.0" fill="none"/><g id="ProcessOnG1177" transform="matrix(1.0,0.0,0.0,1.0,0.0,8.625)"><text id="ProcessOnText1178" fill="#323232" font-size="21" x="60.0" y="21.525" font-family="微软雅黑" font-weight="normal" font-style="normal" text-decoration="none" family="微软雅黑" text-anchor="middle" size="21">10.255.0.3</text></g></g><g id="ProcessOnG1179" transform="matrix(1.0,0.0,0.0,1.0,440.0,364.5)" opacity="1.0"><path id="ProcessOnPath1180" d="M0.0 0.0L122.0 0.0L122.0 43.5L0.0 43.5Z" stroke="none" stroke-width="0.0" stroke-dasharray="0.0 0.0" fill="none"/><g id="ProcessOnG1181" transform="matrix(1.0,0.0,0.0,1.0,0.0,8.625)"><text id="ProcessOnText1182" fill="#323232" font-size="21" x="60.0" y="21.525" font-family="微软雅黑" font-weight="normal" font-style="normal" text-decoration="none" family="微软雅黑" text-anchor="middle" size="21">172.18.0.2</text></g></g><g id="ProcessOnG1183" transform="matrix(1.0,0.0,0.0,1.0,974.5,469.5)" opacity="1.0"><path id="ProcessOnPath1184" d="M0.0 0.0L122.0 0.0L122.0 43.5L0.0 43.5Z" stroke="none" stroke-width="0.0" stroke-dasharray="0.0 0.0" fill="none"/><g id="ProcessOnG1185" transform="matrix(1.0,0.0,0.0,1.0,0.0,8.625)"><text id="ProcessOnText1186" fill="#323232" font-size="21" x="60.0" y="21.525" font-family="微软雅黑" font-weight="normal" font-style="normal" text-decoration="none" family="微软雅黑" text-anchor="middle" size="21">10.255.0.4</text></g></g><g id="ProcessOnG1187" transform="matrix(1.0,0.0,0.0,1.0,917.5,361.0)" opacity="1.0"><path id="ProcessOnPath1188" d="M0.0 0.0L122.0 0.0L122.0 43.5L0.0 43.5Z" stroke="none" stroke-width="0.0" stroke-dasharray="0.0 0.0" fill="none"/><g id="ProcessOnG1189" transform="matrix(1.0,0.0,0.0,1.0,0.0,8.625)"><text id="ProcessOnText1190" fill="#323232" font-size="21" x="60.0" y="21.525" font-family="微软雅黑" font-weight="normal" font-style="normal" text-decoration="none" family="微软雅黑" text-anchor="middle" size="21">172.18.0.2</text></g></g><g id="ProcessOnG1191" transform="matrix(1.0,0.0,0.0,1.0,211.88810803074853,627.5190785565649)" opacity="1.0"><path id="ProcessOnPath1192" d="M0.0 0.0L122.0 0.0L122.0 43.5L0.0 43.5Z" stroke="none" stroke-width="0.0" stroke-dasharray="0.0 0.0" fill="none"/><g id="ProcessOnG1193" transform="matrix(1.0,0.0,0.0,1.0,0.0,8.625)"><text id="ProcessOnText1194" fill="#323232" font-size="21" x="60.0" y="21.525" font-family="微软雅黑" font-weight="normal" font-style="normal" text-decoration="none" family="微软雅黑" text-anchor="middle" size="21">eth0</text></g></g><g id="ProcessOnG1195" transform="matrix(1.0,0.0,0.0,1.0,-4.778558635918154,630.5063595188548)" opacity="1.0"><path id="ProcessOnPath1196" d="M0.0 0.0L122.0 0.0L122.0 43.5L0.0 43.5Z" stroke="none" stroke-width="0.0" stroke-dasharray="0.0 0.0" fill="none"/><g id="ProcessOnG1197" transform="matrix(1.0,0.0,0.0,1.0,0.0,8.625)"><text id="ProcessOnText1198" fill="#323232" font-size="21" x="60.0" y="21.525" font-family="微软雅黑" font-weight="normal" font-style="normal" text-decoration="none" family="微软雅黑" text-anchor="middle" size="21">eth0</text></g></g><g id="ProcessOnG1199" transform="matrix(1.0,0.0,0.0,1.0,-121.44522530258484,628.5148388773282)" opacity="1.0"><path id="ProcessOnPath1200" d="M0.0 0.0L122.0 0.0L122.0 43.5L0.0 43.5Z" stroke="none" stroke-width="0.0" stroke-dasharray="0.0 0.0" fill="none"/><g id="ProcessOnG1201" transform="matrix(1.0,0.0,0.0,1.0,0.0,8.625)"><text id="ProcessOnText1202" fill="#323232" font-size="21" x="60.0" y="21.525" font-family="微软雅黑" font-weight="normal" font-style="normal" text-decoration="none" family="微软雅黑" text-anchor="middle" size="21">eth1</text></g></g><g id="ProcessOnG1203" transform="matrix(1.0,0.0,0.0,1.0,-4.688232054506603,173.75)" opacity="1.0"><path id="ProcessOnPath1204" d="M0.0 0.0L311.6666666666667 0.0L311.6666666666667 70.0L0.0 70.0Z" stroke="none" stroke-width="0.0" stroke-dasharray="none" fill="none"/><g id="ProcessOnG1205" transform="matrix(1.0,0.0,0.0,1.0,0.0,3.75)"><text id="ProcessOnText1206" fill="#323232" font-size="25" x="154.83333333333334" y="25.625" font-family="微软雅黑" font-weight="bold" font-style="normal" text-decoration="none" family="微软雅黑" text-anchor="middle" size="25">HOST 01</text><text id="ProcessOnText1207" fill="#323232" font-size="25" x="154.83333333333334" y="56.875" font-family="微软雅黑" font-weight="bold" font-style="normal" text-decoration="none" family="微软雅黑" text-anchor="middle" size="25">192.168.100.101</text></g></g><g id="ProcessOnG1208" transform="matrix(1.0,0.0,0.0,1.0,492.66744752480713,185.0)" opacity="1.0"><path id="ProcessOnPath1209" d="M0.0 0.0L311.6666666666667 0.0L311.6666666666667 70.0L0.0 70.0Z" stroke="none" stroke-width="0.0" stroke-dasharray="none" fill="none"/><g id="ProcessOnG1210" transform="matrix(1.0,0.0,0.0,1.0,0.0,3.75)"><text id="ProcessOnText1211" fill="#323232" font-size="25" x="154.83333333333334" y="25.625" font-family="微软雅黑" font-weight="bold" font-style="normal" text-decoration="none" family="微软雅黑" text-anchor="middle" size="25">HOST 02</text><text id="ProcessOnText1212" fill="#323232" font-size="25" x="154.83333333333334" y="56.875" font-family="微软雅黑" font-weight="bold" font-style="normal" text-decoration="none" family="微软雅黑" text-anchor="middle" size="25">192.168.100.102</text></g></g><g id="ProcessOnG1213" transform="matrix(1.0,0.0,0.0,1.0,936.0007808581404,186.6666666666667)" opacity="1.0"><path id="ProcessOnPath1214" d="M0.0 0.0L311.6666666666667 0.0L311.6666666666667 70.0L0.0 70.0Z" stroke="none" stroke-width="0.0" stroke-dasharray="none" fill="none"/><g id="ProcessOnG1215" transform="matrix(1.0,0.0,0.0,1.0,0.0,3.75)"><text id="ProcessOnText1216" fill="#323232" font-size="25" x="154.83333333333334" y="25.625" font-family="微软雅黑" font-weight="bold" font-style="normal" text-decoration="none" family="微软雅黑" text-anchor="middle" size="25">HOST 03</text><text id="ProcessOnText1217" fill="#323232" font-size="25" x="154.83333333333334" y="56.875" font-family="微软雅黑" font-weight="bold" font-style="normal" text-decoration="none" family="微软雅黑" text-anchor="middle" size="25">192.168.100.103</text></g></g><g id="ProcessOnG1218"><path id="ProcessOnPath1219" d="M140.0 217.1875C152.0 379.0 21.0 226.0 -21.947541319572757 349.0867679055797" stroke="#323232" stroke-width="3.0" stroke-dasharray="none" fill="none" marker-end="url(#ProcessOnMarker1220)"/></g><g id="ProcessOnG1222"><path id="ProcessOnPath1223" d="M30.0 668.75C13.0 243.0 253.0 438.0 253.69487427709126 446.9465063175498" stroke="#323232" stroke-width="3.0" stroke-dasharray="none" fill="none" marker-end="url(#ProcessOnMarker1224)"/></g><g id="ProcessOnG1226"><path id="ProcessOnPath1227" d="M737.1428571428572 731.4285714285714C737.1428571428572 917.0745203941951 1201.25 914.3959489656236 1201.25 745.6041019662497" stroke="#323232" stroke-width="3.0" stroke-dasharray="none" fill="none" marker-end="url(#ProcessOnMarker1228)"/></g><g id="ProcessOnG1230"><path id="ProcessOnPath1231" d="M231.2671351815509 725.7631181643907C231.26713518155094 923.280243979272 725.0221852169243 929.3871460694306 725.0221852169243 748.7241222207989" stroke="#323232" stroke-width="3.0" stroke-dasharray="none" fill="none" marker-end="url(#ProcessOnMarker1232)"/></g><g id="ProcessOnG1234"><path id="ProcessOnPath1235" d="M3.609861989166106 77.13498414136656C212.0 4.0 527.0 56.0 618.6608093838363 182.08195721152177" stroke="#323232" stroke-width="3.0" stroke-dasharray="none" fill="none" marker-end="url(#ProcessOnMarker1236)"/></g><g id="ProcessOnG1238"><path id="ProcessOnPath1239" d="M662.5 222.1875C692.5 307.0 508.0 285.0 497.5480576295537 353.33962319137964" stroke="#323232" stroke-width="3.0" stroke-dasharray="none" fill="none" marker-end="url(#ProcessOnMarker1240)"/></g><g id="ProcessOnG1242"><path id="ProcessOnPath1243" d="M556.25 671.25C556.25 532.3468163929558 512.0 371.0 291.5884547190435 459.9429907582907" stroke="#323232" stroke-width="3.0" stroke-dasharray="none" fill="none" marker-end="url(#ProcessOnMarker1244)"/></g><g id="ProcessOnG1246"><path id="ProcessOnPath1247" d="M3.609861989166106 77.13498414136656C411.0 -120.0 1106.0 39.0 1097.2382215512937 188.1748946138724" stroke="#323232" stroke-width="3.0" stroke-dasharray="none" fill="none" marker-end="url(#ProcessOnMarker1248)"/></g><g id="ProcessOnG1250"><path id="ProcessOnPath1251" d="M1101.25 227.1875C1096.0 358.0 1031.0 239.0 983.8205157498492 355.6259213473354" stroke="#323232" stroke-width="3.0" stroke-dasharray="none" fill="none" marker-end="url(#ProcessOnMarker1252)"/></g><g id="ProcessOnG1254"><path id="ProcessOnPath1255" d="M1034.2857142857144 674.2857142857143C1092.0 358.0 376.0 379.0 278.8801182413472 456.6204236335347" stroke="#323232" stroke-width="3.0" stroke-dasharray="none" fill="none" marker-end="url(#ProcessOnMarker1256)"/></g></g></g></svg>