<svg xmlns="http://www.w3.org/2000/svg" xmlns:xlink="http://www.w3.org/1999/xlink" id="processonSvg1000" viewBox="108.0 287.0 971.0 390.8270288413926" width="971.0" height="390.8270288413926"><defs id="ProcessOnDefs1001"><marker id="ProcessOnMarker1019" markerUnits="userSpaceOnUse" orient="auto" markerWidth="16.23606797749979" markerHeight="10.550836550532098" viewBox="-1.0 -1.3763819204711736 16.23606797749979 10.550836550532098" refX="-1.0" refY="3.8990363547948754"><path id="ProcessOnPath1020" d="M12.0 3.8990363547948754L0.0 7.798072709589751V0.0Z" stroke="#323232" stroke-width="2.0" fill="#323232" transform="matrix(1.0,0.0,0.0,1.0,0.0,0.0)"/></marker><marker id="ProcessOnMarker1026" markerUnits="userSpaceOnUse" orient="auto" markerWidth="16.23606797749979" markerHeight="10.550836550532098" viewBox="-1.0 -1.3763819204711736 16.23606797749979 10.550836550532098" refX="-1.0" refY="3.8990363547948754"><path id="ProcessOnPath1027" d="M12.0 3.8990363547948754L0.0 7.798072709589751V0.0Z" stroke="#323232" stroke-width="2.0" fill="#323232" transform="matrix(1.0,0.0,0.0,1.0,0.0,0.0)"/></marker><marker id="ProcessOnMarker1036" markerUnits="userSpaceOnUse" orient="auto" markerWidth="16.23606797749979" markerHeight="10.550836550532098" viewBox="-1.0 -1.3763819204711736 16.23606797749979 10.550836550532098" refX="-1.0" refY="3.8990363547948754"><path id="ProcessOnPath1037" d="M12.0 3.8990363547948754L0.0 7.798072709589751V0.0Z" stroke="#323232" stroke-width="2.0" fill="#323232" transform="matrix(1.0,0.0,0.0,1.0,0.0,0.0)"/></marker></defs><g id="ProcessOnG1002"><path id="ProcessOnPath1003" d="M108.0 287.0H1079.0V677.8270288413926H108.0V287.0Z" fill="none"/><g id="ProcessOnG1004"><g id="ProcessOnG1005" transform="matrix(1.0,0.0,0.0,1.0,280.0,601.005974143457)" opacity="1.0"><path id="ProcessOnPath1006" d="M0.0 4.0Q0.0 0.0 4.0 0.0L84.60470025019566 0.0Q88.60470025019566 0.0 88.60470025019566 4.0L88.60470025019566 52.82105469793555Q88.60470025019566 56.82105469793555 84.60470025019566 56.82105469793555L4.0 56.82105469793555Q0.0 56.82105469793555 0.0 52.82105469793555Z" stroke="#888888" stroke-width="3.0" stroke-dasharray="15.0 6.0" opacity="1.0" fill="#4d9900"/><g id="ProcessOnG1007" transform="matrix(1.0,0.0,0.0,1.0,10.0,14.660527348967776)"><text id="ProcessOnText1008" fill="#000000" font-size="22" x="33.30235012509783" y="22.55" font-family="微软雅黑" font-weight="normal" font-style="normal" text-decoration="none" family="微软雅黑" text-anchor="middle" size="22">Nginx</text></g></g><g id="ProcessOnG1009" transform="matrix(1.0,0.0,0.0,1.0,626.2907598653171,603.5957877856106)" opacity="1.0"><path id="ProcessOnPath1010" d="M0.0 4.0Q0.0 0.0 4.0 0.0L86.70924013468289 0.0Q90.70924013468289 0.0 90.70924013468289 4.0L90.70924013468289 47.641427413628435Q90.70924013468289 51.641427413628435 86.70924013468289 51.641427413628435L4.0 51.641427413628435Q0.0 51.641427413628435 0.0 47.641427413628435Z" stroke="#888888" stroke-width="3.0" stroke-dasharray="15.0 6.0" opacity="1.0" fill="#4d9900"/><g id="ProcessOnG1011" transform="matrix(1.0,0.0,0.0,1.0,10.0,12.070713706814217)"><text id="ProcessOnText1012" fill="#000000" font-size="22" x="34.35462006734144" y="22.55" font-family="微软雅黑" font-weight="normal" font-style="normal" text-decoration="none" family="微软雅黑" text-anchor="middle" size="22">PHP</text></g></g><g id="ProcessOnG1013" transform="matrix(1.0,0.0,0.0,1.0,968.0689532024503,603.5957877856107)" opacity="1.0"><path id="ProcessOnPath1014" d="M0.0 4.0Q0.0 0.0 4.0 0.0L86.9310467975497 0.0Q90.9310467975497 0.0 90.9310467975497 4.0L90.9310467975497 47.64142741362821Q90.9310467975497 51.64142741362821 86.9310467975497 51.64142741362821L4.0 51.64142741362821Q0.0 51.64142741362821 0.0 47.64142741362821Z" stroke="#888888" stroke-width="3.0" stroke-dasharray="15.0 6.0" opacity="1.0" fill="#4d9900"/><g id="ProcessOnG1015" transform="matrix(1.0,0.0,0.0,1.0,10.0,12.070713706814104)"><text id="ProcessOnText1016" fill="#000000" font-size="22" x="34.46552339877485" y="22.55" font-family="微软雅黑" font-weight="normal" font-style="normal" text-decoration="none" family="微软雅黑" text-anchor="middle" size="22">Mysql</text></g></g><g id="ProcessOnG1017"><path id="ProcessOnPath1018" d="M368.6047002501957 629.4165014924249C471.67912409624427 629.4165014924249 523.2163360192685 629.4165014924248 611.0546918878173 629.4165014924248" stroke="#323232" stroke-width="2.0" stroke-dasharray="none" fill="none" marker-end="url(#ProcessOnMarker1019)"/><g id="ProcessOnG1021" transform="matrix(1.0,0.0,0.0,1.0,495.5432215605689,618.7915014924248)"><path id="ProcessOnPath1022" d="M0 0H38.0V21.25H0Z" fill="#fff" transform="matrix(1.0,0.0,0.0,1.0,-19.0,0.0)"/><text id="ProcessOnText1023" fill="#000000" font-size="17" x="0.0" y="17.425" font-family="微软雅黑" font-weight="bold" font-style="normal" text-decoration="none" family="微软雅黑" text-anchor="middle" size="17">net1</text></g></g><g id="ProcessOnG1024"><path id="ProcessOnPath1025" d="M708.303107420977 629.7371308154381C811.3775312670255 630.4551468794782 862.9147431900499 630.8141549114981 950.7534687110499 631.4260391560618" stroke="#323232" stroke-width="2.0" stroke-dasharray="none" fill="none" marker-end="url(#ProcessOnMarker1026)"/><g id="ProcessOnG1028" transform="matrix(1.0,0.0,0.0,1.0,835.2416749379066,619.9963844180536)"><path id="ProcessOnPath1029" d="M0 0H38.0V21.25H0Z" fill="#fff" transform="matrix(1.0,0.0,0.0,1.0,-19.0,0.0)"/><text id="ProcessOnText1030" fill="#000000" font-size="17" x="0.0" y="17.425" font-family="微软雅黑" font-weight="bold" font-style="normal" text-decoration="none" family="微软雅黑" text-anchor="middle" size="17">net1</text></g></g><g id="ProcessOnG1031" transform="matrix(1.0,0.0,0.0,1.0,128.0,307.0)" opacity="1.0"><g id="ProcessOnG1033" transform="matrix(1.022824264796325,0.0,0.0,0.7802737555906636,0.0,0.0)"> <g id="g12" transform="scale(0.1,0.1)"> <path id="path22" fill="#02709F" d="M261.113,104.458c0,49.36-40.244,89.453-90.078,89.453c-49.697,0-90.059-40.093-90.059-89.453 C80.977,55.112,121.338,15,171.035,15C220.869,15,261.113,55.112,261.113,104.458"/> <path id="path24" fill="none" stroke="#FFFFFF" stroke-width="3.9999" d="M261.113,104.458c0,49.36-40.244,89.453-90.078,89.453 c-49.697,0-90.059-40.093-90.059-89.453C80.977,55.112,121.338,15,171.035,15C220.869,15,261.113,55.112,261.113,104.458z"/> <path id="path26" fill="#02709F" d="M310.635,785H685V389.56H310.635V785z"/> <path id="path28" fill="none" stroke="#FFFFFF" stroke-width="3.9999" d="M310.635,785H685V389.56H310.635V785z"/> <path id="path30" fill="#02709F" d="M441.699,388.437h217.979V339.16H441.699V388.437z"/> <path id="path32" fill="none" stroke="#FFFFFF" stroke-width="3.9999" d="M441.699,388.437h217.979V339.16H441.699V388.437z"/> <path id="path34" fill="#02709F" d="M615.342,213.418V339.16H445.693V170.732l149.834,19.409 C595.527,190.142,615.879,192.095,615.342,213.418"/> <path id="path36" fill="none" stroke="#FFFFFF" stroke-width="3.9999" d="M615.342,213.418V339.16H445.693V170.732l149.834,19.409 C595.527,190.142,615.879,192.095,615.342,213.418z"/> <path id="path38" fill="#02709F" d="M288.34,733.886H184.912V612.295h-51.875v121.592H31.211c-8.975,0-16.211,7.266-16.211,15.967 v18.779c0,8.936,7.236,16.26,16.211,16.26H288.34c8.984,0,16.211-7.324,16.211-16.26v-18.779 C304.551,741.152,297.324,733.886,288.34,733.886"/> <path id="path40" fill="none" stroke="#FFFFFF" stroke-width="3.9999" d="M288.34,733.886H184.912V612.295h-51.875v121.592H31.211 c-8.975,0-16.211,7.266-16.211,15.967v18.779c0,8.936,7.236,16.26,16.211,16.26H288.34c8.984,0,16.211-7.324,16.211-16.26v-18.779 C304.551,741.152,297.324,733.886,288.34,733.886z"/> <path id="path42" fill="#02709F" d="M292.871,555.654H79.668V254.863c0-9.785-7.959-17.695-17.813-17.695H40.996 c-9.844,0-17.803,7.91-17.803,17.695v339.209c0,9.756,7.959,17.832,17.803,17.832h251.875c9.844,0,17.822-8.076,17.822-17.832 v-20.869C310.693,563.681,302.715,555.654,292.871,555.654"/> <path id="path44" fill="none" stroke="#FFFFFF" stroke-width="3.9999" d="M292.871,555.654H79.668V254.863 c0-9.785-7.959-17.695-17.813-17.695H40.996c-9.844,0-17.803,7.91-17.803,17.695v339.209c0,9.756,7.959,17.832,17.803,17.832 h251.875c9.844,0,17.822-8.076,17.822-17.832v-20.869C310.693,563.681,302.715,555.654,292.871,555.654z"/> <path id="path46" fill="#02709F" d="M242.822,213.13l163.496,117.778c7.188,5.986,11.367,14.893,11.367,24.727 c0,18.037-14.59,32.646-32.744,32.646c-5.449,0-12.852-1.846-18.73-5.137L229.346,299.18v152.636l77.275,0.234v98.34L87.93,549.873 V225.908c0,0,1.348-25.64,43.77-25.64h78.896C210.596,200.269,225.498,201.021,242.822,213.13"/> <path id="path48" fill="none" stroke="#FFFFFF" stroke-width="3.9999" d="M242.822,213.13l163.496,117.778 c7.188,5.986,11.367,14.893,11.367,24.727c0,18.037-14.59,32.646-32.744,32.646c-5.449,0-12.852-1.846-18.73-5.137L229.346,299.18 v152.636l77.275,0.234v98.34L87.93,549.873V225.908c0,0,1.348-25.64,43.77-25.64h78.896 C210.596,200.269,225.498,201.021,242.822,213.13z"/> </g>  </g></g><g id="ProcessOnG1034"><path id="ProcessOnPath1035" d="M199.59769853574275 338.2109502236265C315.95059259518365 338.2109502236265 324.30235012509786 484.6530800840161 324.30235012509786 585.7699061659572" stroke="#323232" stroke-width="2.0" stroke-dasharray="none" fill="none" marker-end="url(#ProcessOnMarker1036)"/><g id="ProcessOnG1038" transform="matrix(1.0,0.0,0.0,1.0,305.5823596027106,414.07161841406395)"><path id="ProcessOnPath1039" d="M0 0H58.0V20.0H0Z" fill="#fff" transform="matrix(1.0,0.0,0.0,1.0,-29.0,0.0)"/><text id="ProcessOnText1040" fill="#000000" font-size="16" x="0.0" y="16.4" font-family="微软雅黑" font-weight="bold" font-style="normal" text-decoration="none" family="微软雅黑" text-anchor="middle" size="16">Ingerss</text></g></g></g></g></svg>